<svg xmlns="http://www.w3.org/2000/svg" width="15.84" height="19.87" viewBox="0 0 15.84 19.87">
  <g id="Profile" transform="translate(0.75 0.714)" style="isolation: isolate">
    <path id="Stroke_1" data-name="Stroke 1" d="M7.17-.75a16.978,16.978,0,0,1,5.284.636C14.633.627,15.09,1.96,15.09,2.948S14.631,5.266,12.444,6a17.178,17.178,0,0,1-5.274.624,16.988,16.988,0,0,1-5.285-.636C-.293,5.248-.75,3.915-.75,2.927S-.291.607,1.9-.126A17.187,17.187,0,0,1,7.17-.75Zm0,5.874c4.26,0,6.42-.732,6.42-2.177,0-.468-.168-1.148-1.618-1.642A15.842,15.842,0,0,0,7.17.75C2.91.75.75,1.482.75,2.927c0,.469.168,1.149,1.618,1.642A15.852,15.852,0,0,0,7.17,5.124Z" transform="translate(0 12.532)" fill="#858e96"/>
    <path id="Stroke_3" data-name="Stroke 3" d="M4.6-.714a5.31,5.31,0,0,1,0,10.62H4.564A5.295,5.295,0,0,1-.714,4.593,5.315,5.315,0,0,1,4.6-.714Zm-.03,9.191H4.6A3.881,3.881,0,1,0,.714,4.6,3.866,3.866,0,0,0,4.566,8.477Z" transform="translate(2.574 0)" fill="#858e96"/>
  </g>
</svg>
