<svg xmlns="http://www.w3.org/2000/svg" width="24.671" height="19.026" viewBox="0 0 24.671 19.026">
  <g id="Iconly_Light_3_User" data-name="Iconly/Light/3 User" transform="translate(-1 -3.5)" style="isolation: isolate">
    <g id="_3_User" data-name="3 User" transform="translate(1 3.5)" style="isolation: isolate">
      <path id="Stroke_1" data-name="Stroke 1" d="M.1,7.383A.85.85,0,0,1-.018,5.691a2.418,2.418,0,0,0,2.07-2.379A2.4,2.4,0,0,0,.037.939.85.85,0,1,1,.312-.739,4.09,4.09,0,0,1,3.751,3.313,4.126,4.126,0,0,1,.218,7.374.858.858,0,0,1,.1,7.383Z" transform="translate(19.036 1.849)" fill="#858e96"/>
      <path id="Stroke_3" data-name="Stroke 3" d="M1.383,4.384a.85.85,0,0,1-.3-1.644c.77-.294.77-.616.77-.771,0-.5-.631-.843-1.875-1.029A.85.85,0,1,1,.226-.741,5.5,5.5,0,0,1,2.44,0,2.288,2.288,0,0,1,3.549,1.97,2.467,2.467,0,0,1,1.686,4.328.848.848,0,0,1,1.383,4.384Z" transform="translate(21.122 12.082)" fill="#858e96"/>
      <path id="Stroke_5" data-name="Stroke 5" d="M6.852-.75a16.129,16.129,0,0,1,5.022.606C14.006.58,14.453,1.9,14.453,2.875S14,5.168,11.863,5.883a16.359,16.359,0,0,1-5.011.593,16.165,16.165,0,0,1-5.022-.6C-.3,5.149-.75,3.832-.75,2.856S-.3.563,1.84-.154A16.31,16.31,0,0,1,6.852-.75Zm0,5.526a14.818,14.818,0,0,0,4.472-.5c1.43-.478,1.43-1.122,1.43-1.4,0-.253,0-.925-1.426-1.41A14.8,14.8,0,0,0,6.852.95a14.983,14.983,0,0,0-4.472.507C.95,1.937.95,2.581.95,2.856c0,.252,0,.923,1.426,1.406A14.834,14.834,0,0,0,6.852,4.776Z" transform="translate(5.484 12.55)" fill="#858e96"/>
      <path id="Stroke_7" data-name="Stroke 7" d="M4.427-.75a5.177,5.177,0,0,1,0,10.355H4.4A5.16,5.16,0,0,1-.75,4.424,5.182,5.182,0,0,1,4.427-.75Zm0,8.655A3.478,3.478,0,1,0,.95,4.427,3.46,3.46,0,0,0,4.4,7.9Z" transform="translate(7.909 0.75)" fill="#858e96"/>
      <path id="Stroke_9" data-name="Stroke 9" d="M2.9,7.383a.857.857,0,0,1-.119-.008A4.1,4.1,0,0,1,2.689-.739.85.85,0,1,1,2.964.939a2.4,2.4,0,0,0,.055,4.753A.85.85,0,0,1,2.9,7.383Z" transform="translate(2.634 1.849)" fill="#858e96"/>
      <path id="Stroke_11" data-name="Stroke 11" d="M1.416,4.384a.848.848,0,0,1-.3-.056A2.467,2.467,0,0,1-.75,1.97,2.288,2.288,0,0,1,.359,0,5.5,5.5,0,0,1,2.574-.741.85.85,0,1,1,2.825.94C1.581,1.126.95,1.473.95,1.97c0,.155,0,.477.77.771a.85.85,0,0,1-.3,1.644Z" transform="translate(0.75 12.082)" fill="#858e96"/>
    </g>
  </g>
</svg>
