<svg xmlns="http://www.w3.org/2000/svg" width="25.926" height="18.321" viewBox="0 0 25.926 18.321">
  <g id="Group_13" data-name="Group 13" transform="translate(-143.964 -2155.671)">
    <path id="Path_1539" data-name="Path 1539" d="M287.286,151.957a.864.864,0,1,0,.864.864A.865.865,0,0,0,287.286,151.957Zm0,0" transform="translate(-128.631 2016.85)" fill="#fff"/>
    <path id="Path_1542" data-name="Path 1542" d="M129.057,18.321H149.8a2.6,2.6,0,0,0,2.593-2.593V2.592A2.6,2.6,0,0,0,149.8,0H129.057a2.6,2.6,0,0,0-2.593,2.593V15.728A2.6,2.6,0,0,0,129.057,18.321ZM150.662,6.913H128.193V5.185h22.469Zm-.864,9.679H129.057a.865.865,0,0,1-.864-.864V8.642h22.469v7.086A.865.865,0,0,1,149.8,16.593ZM129.057,1.728H149.8a.865.865,0,0,1,.864.864v.864H128.193V2.592A.865.865,0,0,1,129.057,1.728Zm0,0" transform="translate(17.499 2155.671)" fill="#fff"/>
    <path id="Path_1543" data-name="Path 1543" d="M330.731,151.957h-3.457a.864.864,0,0,0,0,1.729h3.457a.864.864,0,1,0,0-1.729Zm0,0" transform="translate(-165.163 2016.85)" fill="#fff"/>
  </g>
</svg>
