<svg xmlns="http://www.w3.org/2000/svg" width="17.378" height="17.61" viewBox="0 0 17.378 17.61">
  <g id="Group_10" data-name="Group 10" transform="translate(-1662.252 -4427.22)">
    <path id="Path_2" data-name="Path 2" d="M1677.045,4444.831H1664.1a1.853,1.853,0,0,1-1.853-1.854v-7.4a1.841,1.841,0,0,1,.543-1.31l6.509-6.509a1.853,1.853,0,0,1,2.628.008l6.431,6.506a1.843,1.843,0,0,1,.535,1.3v7.4A1.853,1.853,0,0,1,1677.045,4444.831Zm-12.025-2.354h11.11a.414.414,0,0,0,.414-.414v-6.106a.413.413,0,0,0-.12-.291l-5.52-5.585a.415.415,0,0,0-.587,0l-5.59,5.591a.413.413,0,0,0-.121.292v6.1A.414.414,0,0,0,1665.02,4442.477Z" transform="translate(0 0)" fill="#858e96"/>
    <path id="Path_3" data-name="Path 3" d="M1776.224,4501.886a1.172,1.172,0,0,1-.832-.345l-2.713-2.712a.445.445,0,0,1,0-.628l1.037-1.036a.444.444,0,0,1,.628,0l1.566,1.566a.443.443,0,0,0,.628,0l6.975-6.975a.444.444,0,0,1,.628,0l1.036,1.037a.444.444,0,0,1,0,.628l-8.121,8.121A1.173,1.173,0,0,1,1776.224,4501.886Z" transform="translate(-105.677 -61.708)" fill="#858e96"/>
  </g>
</svg>
