<svg xmlns="http://www.w3.org/2000/svg" width="13.03" height="9.477" viewBox="0 0 13.03 9.477">
  <g id="YouTube-23" transform="translate(-1 -4)">
    <path id="Path_709" data-name="Path 709" d="M10.441,5.724l-.835.859a3.12,3.12,0,0,1,0,4.312l.835.859a4.35,4.35,0,0,0,0-6.03ZM12.117,4l-.835.859a5.581,5.581,0,0,1,1.564,3.885,5.5,5.5,0,0,1-1.564,3.874l.829.859A6.817,6.817,0,0,0,12.117,4ZM4.589,5.724a4.35,4.35,0,0,0,0,6.03l.835-.859a3.12,3.12,0,0,1,0-4.312Zm-.841-.865L2.919,4a6.817,6.817,0,0,0-.006,9.477l.835-.859A5.581,5.581,0,0,1,2.185,8.732,5.5,5.5,0,0,1,3.748,4.859Z" fill="#00b3c8"/>
    <circle id="Ellipse_47" data-name="Ellipse 47" cx="1.56" cy="1.56" r="1.56" transform="translate(5.955 7.178)" fill="#00b3c8"/>
  </g>
</svg>
